<svg xmlns="http://www.w3.org/2000/svg" version="1.1" xmlns:xlink="http://www.w3.org/1999/xlink" xmlns:svgjs="http://svgjs.com/svgjs" width="1440" height="560" preserveAspectRatio="none" viewBox="0 0 1440 560">
    <g mask="url(&quot;#SvgjsMask1147&quot;)" fill="none">
        <path d="M932.708,302.652C983.184,303.638,1029.955,277.897,1056.875,235.187C1085.814,189.273,1095.694,132.011,1070.587,83.895C1043.671,32.312,990.891,-2.665,932.708,-2.773C874.353,-2.881,819.929,31.133,793.939,83.381C770.253,130.997,788.23,185.555,816.67,230.494C842.776,271.745,883.899,301.698,932.708,302.652" fill="rgba(18, 48, 82, 0.14)" class="triangle-float2"></path>
        <path d="M1240.532,467.502C1268.346,467.749,1299.941,470.211,1315.721,447.306C1333.041,422.165,1328.769,388.203,1313.292,361.887C1298.037,335.949,1270.588,318.001,1240.532,319.46C1212.491,320.821,1193.072,344.076,1179.055,368.401C1165.066,392.678,1152.85,422.18,1167.62,445.99C1181.937,469.069,1213.374,467.261,1240.532,467.502" fill="rgba(18, 48, 82, 0.14)" class="triangle-float3"></path>
        <path d="M163.148,599.729C217.154,601.778,264.202,565.016,290.211,517.641C315.23,472.07,312.52,418.035,288.097,372.142C261.928,322.967,218.853,278.746,163.148,278.874C107.603,279.001,63.424,322.734,39.189,372.713C17.917,416.581,28.39,465.804,51.755,508.594C76.397,553.723,111.766,597.78,163.148,599.729" fill="rgba(18, 48, 82, 0.14)" class="triangle-float1"></path>
        <path d="M1241.893,805.231C1303.258,806.803,1361.508,774.563,1391.724,721.13C1421.504,668.469,1416.647,603.568,1385.138,551.923C1354.932,502.414,1299.801,472.359,1241.893,475.548C1188.7,478.477,1150.165,520.15,1123.593,566.324C1097.105,612.352,1081.231,666.187,1104.797,713.778C1130.924,766.541,1183.035,803.723,1241.893,805.231" fill="rgba(18, 48, 82, 0.14)" class="triangle-float2"></path>
    </g>
    <defs>
        <mask id="SvgjsMask1147">
            <rect width="1440" height="560" fill="#ffffff"></rect>
        </mask>
        <style>
            @keyframes float1 {
                0%{transform: translate(0, 0)}
                50%{transform: translate(-10px, 0)}
                100%{transform: translate(0, 0)}
            }

            .triangle-float1 {
                animation: float1 5s infinite;
            }

            @keyframes float2 {
                0%{transform: translate(0, 0)}
                50%{transform: translate(-5px, -5px)}
                100%{transform: translate(0, 0)}
            }

            .triangle-float2 {
                animation: float2 4s infinite;
            }

            @keyframes float3 {
                0%{transform: translate(0, 0)}
                50%{transform: translate(0, -10px)}
                100%{transform: translate(0, 0)}
            }

            .triangle-float3 {
                animation: float3 6s infinite;
            }
        </style>
    </defs>
</svg>