<svg xmlns="http://www.w3.org/2000/svg" version="1.1" xmlns:xlink="http://www.w3.org/1999/xlink" xmlns:svgjs="http://svgjs.com/svgjs" width="1440" height="560" preserveAspectRatio="none" viewBox="0 0 1440 560">
  <g mask="url(&quot;#SvgjsMask1011&quot;)" fill="none">
      <rect width="1440" height="560" x="0" y="0" fill="url(#SvgjsLinearGradient1012)"></rect>
      <path d="M1440 0L1173.42 0L1440 114.01z" fill="rgba(255, 255, 255, .1)"></path>
      <path d="M1173.42 0L1440 114.01L1440 281.26L662.32 0z" fill="rgba(255, 255, 255, .075)"></path>
      <path d="M662.3199999999999 0L1440 281.26L1440 398.31L590.6999999999999 0z" fill="rgba(255, 255, 255, .05)"></path>
      <path d="M590.6999999999999 0L1440 398.31L1440 451.47L197.44999999999993 0z" fill="rgba(255, 255, 255, .025)"></path>
      <path d="M0 560L665.66 560L0 439.5z" fill="rgba(0, 0, 0, .1)"></path>
      <path d="M0 439.5L665.66 560L934.64 560L0 372.46z" fill="rgba(0, 0, 0, .075)"></path>
      <path d="M0 372.46L934.64 560L1125.58 560L0 192.77999999999997z" fill="rgba(0, 0, 0, .05)"></path>
      <path d="M0 192.77999999999997L1125.58 560L1329.6399999999999 560L0 83.94999999999997z" fill="rgba(0, 0, 0, .025)"></path>
  </g>
  <defs>
      <mask id="SvgjsMask1011">
          <rect width="1440" height="560" fill="#ffffff"></rect>
      </mask>
      <linearGradient x1="15.28%" y1="-39.29%" x2="84.72%" y2="139.29%" gradientUnits="userSpaceOnUse" id="SvgjsLinearGradient1012">
          <stop stop-color="#0e2a47" offset="0"></stop>
          <stop stop-color="rgba(3, 12, 21, 1)" offset="1"></stop>
      </linearGradient>
  </defs>
</svg>