<svg width="132" height="131" viewBox="0 0 132 131" fill="none" xmlns="http://www.w3.org/2000/svg">
  <path
    d="M47.6449 111.997L64.7214 129.808C65.1066 130.21 65.7457 130.22 66.1432 129.831L131.384 65.8892C131.775 65.5056 131.785 64.8785 131.406 64.483L108.241 40.3212C108.057 40.1298 107.805 40.0191 107.54 40.0135L71.1143 39.2467C70.2373 39.2282 69.7632 40.2674 70.352 40.9176L92.259 65.1138C92.6181 65.5104 92.6014 66.1194 92.2211 66.4957L47.6633 110.595C47.2751 110.979 47.2669 111.603 47.6449 111.997Z"
    fill="#17F1FF" fill-opacity="0.5" />
  <path
    d="M83.4496 18.1628L65.9946 0.722657C65.6009 0.329262 64.9617 0.333047 64.5727 0.731075L0.719755 66.0586C0.33671 66.4504 0.340422 67.0776 0.728081 67.465L24.407 91.1237C24.5946 91.3112 24.849 91.4164 25.1142 91.4163L61.5477 91.4008C62.4249 91.4004 62.8766 90.3513 62.274 89.7139L39.8525 65.9937C39.485 65.6049 39.4886 64.9957 39.8607 64.6113L83.4614 19.5657C83.8412 19.1733 83.836 18.5488 83.4496 18.1628Z"
    fill="#07F7D3" fill-opacity="0.7" />
</svg>