<svg id="svg" version="1.1" xmlns="http://www.w3.org/2000/svg"
  xmlns:xlink="http://www.w3.org/1999/xlink" width="400" height="400" viewBox="0, 0, 400,400">
  <g id="svgg">
    <path id="path0"
      d="M87.500 241.246 C 82.330 245.219,68.650 255.707,57.100 264.554 C 45.550 273.400,35.933 280.799,35.730 280.995 C 34.875 281.819,45.624 300.412,50.981 307.378 C 51.287 307.775,52.064 308.820,52.709 309.700 C 54.004 311.467,58.042 316.589,59.253 318.000 C 59.678 318.495,60.095 318.993,60.181 319.107 C 61.375 320.700,65.693 325.315,70.189 329.806 C 75.551 335.161,76.596 336.131,81.720 340.508 C 142.965 392.826,236.415 397.825,301.600 352.269 C 304.092 350.527,307.020 348.321,310.294 345.716 C 313.066 343.511,315.675 341.294,318.400 338.827 C 319.497 337.834,319.499 337.830,319.100 337.441 C 318.474 336.832,261.002 292.400,260.840 292.400 C 260.761 292.400,259.617 293.035,258.298 293.811 C 234.015 308.105,198.673 312.230,170.279 304.085 C 154.388 299.527,141.080 292.244,128.103 281.004 C 127.084 280.121,119.923 272.965,118.993 271.900 C 109.449 260.967,102.357 248.902,97.897 236.007 C 97.537 234.966,97.165 234.093,97.071 234.068 C 96.977 234.043,92.670 237.273,87.500 241.246 "
      stroke="none" fill="#34ab54" fill-rule="evenodd"></path>
    <path id="path1"
      d="M200.000 202.100 L 200.000 237.400 249.200 237.400 C 276.260 237.400,298.400 237.454,298.400 237.519 C 298.400 237.876,296.885 243.844,296.272 245.900 C 290.836 264.142,279.268 280.028,263.772 290.534 C 262.357 291.493,261.203 292.328,261.207 292.389 C 261.211 292.450,274.322 302.641,290.344 315.036 L 319.473 337.572 321.522 335.675 C 330.853 327.035,341.878 313.054,349.217 300.556 C 350.168 298.937,350.988 297.655,351.040 297.706 C 351.091 297.758,351.134 297.687,351.135 297.550 C 351.136 297.413,352.017 295.649,353.092 293.632 C 367.299 266.973,374.804 235.177,374.861 201.400 C 374.879 190.315,372.997 174.127,370.879 167.150 C 370.778 166.817,366.533 166.800,285.387 166.800 L 200.000 166.800 200.000 202.100 "
      stroke="none" fill="#4484f3" fill-rule="evenodd"></path>
    <path id="path2"
      d="M33.711 122.145 C 10.871 171.357,10.861 228.728,33.683 277.790 C 34.525 279.600,35.247 281.113,35.287 281.154 C 35.327 281.194,45.022 273.822,56.830 264.771 C 68.639 255.720,82.538 245.066,87.719 241.096 L 97.138 233.878 96.864 232.989 C 90.086 210.933,90.093 188.768,96.885 166.951 L 97.180 166.003 66.384 142.451 C 49.446 129.498,35.516 118.875,35.428 118.845 C 35.340 118.814,34.568 120.299,33.711 122.145 "
      stroke="none" fill="#fbbb04" fill-rule="evenodd"></path>
    <path id="path3"
      d="M190.300 16.808 C 132.871 19.975,81.268 48.756,48.850 95.700 C 42.986 104.191,34.962 118.265,35.624 118.897 C 35.776 119.042,49.355 129.442,65.800 142.010 C 82.245 154.577,96.023 165.112,96.418 165.421 L 97.136 165.983 98.453 162.441 C 117.932 110.048,173.866 81.045,227.700 95.423 C 240.983 98.971,254.229 105.610,265.315 114.276 L 267.500 115.985 294.254 89.242 L 321.007 62.500 319.971 61.600 C 289.821 35.425,252.855 20.066,212.600 16.987 C 208.946 16.708,194.261 16.590,190.300 16.808 "
      stroke="none" fill="#ec4434" fill-rule="evenodd"></path>
    <path id="path4"
      d="M285.288 166.750 C 353.294 166.790,370.709 166.851,370.835 167.050 C 370.948 167.228,370.995 167.199,370.997 166.950 C 371.000 166.617,366.813 166.602,285.450 166.650 L 199.900 166.700 285.288 166.750 M371.040 167.700 C 371.040 167.920,371.112 168.325,371.200 168.600 C 371.327 168.996,371.360 169.017,371.360 168.700 C 371.360 168.480,371.288 168.075,371.200 167.800 C 371.073 167.404,371.040 167.383,371.040 167.700 M371.632 170.400 C 371.624 170.565,371.739 171.240,371.888 171.900 C 372.037 172.560,372.160 172.875,372.160 172.600 C 372.162 172.039,371.656 169.931,371.632 170.400 M373.246 179.400 C 373.246 179.785,373.288 179.942,373.338 179.750 C 373.388 179.558,373.388 179.243,373.338 179.050 C 373.288 178.858,373.246 179.015,373.246 179.400 M373.446 180.800 C 373.446 181.185,373.488 181.343,373.538 181.150 C 373.588 180.958,373.588 180.643,373.538 180.450 C 373.488 180.258,373.446 180.415,373.446 180.800 M373.846 183.600 C 373.846 183.985,373.888 184.143,373.938 183.950 C 373.988 183.758,373.988 183.442,373.938 183.250 C 373.888 183.058,373.846 183.215,373.846 183.600 M374.054 185.200 C 374.054 185.695,374.093 185.898,374.141 185.650 C 374.189 185.403,374.189 184.998,374.141 184.750 C 374.093 184.503,374.054 184.705,374.054 185.200 M374.254 187.000 C 374.254 187.495,374.293 187.697,374.341 187.450 C 374.389 187.203,374.389 186.798,374.341 186.550 C 374.293 186.303,374.254 186.505,374.254 187.000 M374.457 189.100 C 374.459 189.650,374.498 189.851,374.544 189.547 C 374.589 189.243,374.588 188.793,374.541 188.547 C 374.493 188.301,374.456 188.550,374.457 189.100 M374.664 191.600 C 374.664 192.315,374.700 192.608,374.745 192.250 C 374.789 191.893,374.789 191.308,374.745 190.950 C 374.700 190.593,374.664 190.885,374.664 191.600 M374.874 195.400 C 374.874 196.555,374.907 197.028,374.947 196.450 C 374.988 195.873,374.988 194.928,374.947 194.350 C 374.907 193.773,374.874 194.245,374.874 195.400 M374.879 206.800 C 374.879 208.395,374.911 209.048,374.949 208.250 C 374.986 207.453,374.986 206.148,374.949 205.350 C 374.911 204.553,374.879 205.205,374.879 206.800 M374.670 212.200 C 374.670 213.135,374.704 213.518,374.746 213.050 C 374.789 212.582,374.789 211.818,374.746 211.350 C 374.704 210.882,374.670 211.265,374.670 212.200 M374.464 215.600 C 374.464 216.315,374.500 216.607,374.545 216.250 C 374.589 215.893,374.589 215.308,374.545 214.950 C 374.500 214.593,374.464 214.885,374.464 215.600 M374.260 218.400 C 374.260 219.005,374.297 219.253,374.343 218.950 C 374.389 218.648,374.389 218.153,374.343 217.850 C 374.297 217.548,374.260 217.795,374.260 218.400 M374.060 220.800 C 374.060 221.405,374.097 221.653,374.143 221.350 C 374.189 221.048,374.189 220.553,374.143 220.250 C 374.097 219.947,374.060 220.195,374.060 220.800 M373.857 222.900 C 373.859 223.450,373.898 223.651,373.944 223.347 C 373.989 223.043,373.988 222.593,373.941 222.347 C 373.893 222.101,373.856 222.350,373.857 222.900 M373.654 224.800 C 373.654 225.295,373.693 225.498,373.741 225.250 C 373.789 225.003,373.789 224.597,373.741 224.350 C 373.693 224.103,373.654 224.305,373.654 224.800 M373.450 226.700 C 373.453 227.140,373.494 227.296,373.541 227.048 C 373.589 226.799,373.587 226.439,373.537 226.248 C 373.487 226.056,373.448 226.260,373.450 226.700 M373.250 228.300 C 373.253 228.740,373.294 228.896,373.341 228.648 C 373.389 228.399,373.387 228.039,373.337 227.848 C 373.287 227.656,373.248 227.860,373.250 228.300 M373.046 229.800 C 373.046 230.185,373.088 230.343,373.138 230.150 C 373.188 229.957,373.188 229.643,373.138 229.450 C 373.088 229.257,373.046 229.415,373.046 229.800 M372.846 231.400 C 372.846 231.785,372.888 231.943,372.938 231.750 C 372.988 231.558,372.988 231.243,372.938 231.050 C 372.888 230.857,372.846 231.015,372.846 231.400 M372.646 232.800 C 372.646 233.185,372.688 233.343,372.738 233.150 C 372.788 232.957,372.788 232.643,372.738 232.450 C 372.688 232.257,372.646 232.415,372.646 232.800 M372.246 235.400 C 372.246 235.785,372.288 235.943,372.338 235.750 C 372.388 235.558,372.388 235.243,372.338 235.050 C 372.288 234.857,372.246 235.015,372.246 235.400 M249.045 237.550 L 298.190 237.601 298.098 238.250 C 298.016 238.822,298.027 238.840,298.183 238.400 C 298.280 238.125,298.369 237.788,298.380 237.650 C 298.396 237.450,288.452 237.410,249.150 237.450 L 199.900 237.499 249.045 237.550 M371.709 238.309 C 371.633 238.819,371.611 239.278,371.661 239.328 C 371.711 239.378,371.814 239.001,371.891 238.491 C 371.967 237.981,371.989 237.522,371.939 237.472 C 371.889 237.422,371.786 237.799,371.709 238.309 M297.711 239.711 C 297.636 240.112,297.614 240.481,297.663 240.530 C 297.712 240.579,297.814 240.290,297.889 239.889 C 297.964 239.488,297.986 239.119,297.937 239.070 C 297.888 239.021,297.786 239.310,297.711 239.711 M371.309 240.509 C 371.233 241.019,371.211 241.478,371.261 241.528 C 371.311 241.578,371.414 241.201,371.491 240.691 C 371.567 240.181,371.589 239.722,371.539 239.672 C 371.489 239.622,371.386 239.999,371.309 240.509 M296.817 243.317 C 296.688 243.829,296.619 244.286,296.665 244.332 C 296.711 244.378,296.854 243.996,296.983 243.483 C 297.112 242.971,297.181 242.514,297.135 242.468 C 297.089 242.422,296.946 242.804,296.817 243.317 M296.218 245.418 C 296.083 245.870,296.009 246.276,296.054 246.321 C 296.099 246.366,296.247 246.033,296.382 245.582 C 296.517 245.130,296.591 244.724,296.546 244.679 C 296.501 244.634,296.353 244.967,296.218 245.418 M370.111 246.511 C 370.036 246.912,370.014 247.281,370.063 247.330 C 370.112 247.379,370.214 247.090,370.289 246.689 C 370.364 246.288,370.386 245.919,370.337 245.870 C 370.288 245.821,370.186 246.110,370.111 246.511 M295.345 248.245 C 295.051 249.143,294.844 249.911,294.885 249.951 C 294.925 249.992,295.202 249.294,295.500 248.400 C 295.798 247.506,296.005 246.738,295.961 246.694 C 295.917 246.650,295.640 247.348,295.345 248.245 M369.711 248.311 C 369.636 248.712,369.614 249.081,369.663 249.130 C 369.712 249.179,369.814 248.890,369.889 248.489 C 369.964 248.088,369.986 247.719,369.937 247.670 C 369.888 247.621,369.786 247.910,369.711 248.311 M293.590 252.957 C 292.310 256.178,292.306 256.189,292.584 255.800 C 292.876 255.390,294.849 250.383,294.755 250.289 C 294.714 250.247,294.190 251.448,293.590 252.957 M368.636 252.836 C 368.280 254.277,368.025 255.492,368.069 255.536 C 368.113 255.580,368.442 254.439,368.800 253.000 C 369.158 251.561,369.413 250.346,369.367 250.300 C 369.321 250.254,368.992 251.396,368.636 252.836 M367.617 256.717 C 367.488 257.229,367.419 257.686,367.465 257.732 C 367.511 257.778,367.654 257.396,367.783 256.883 C 367.912 256.371,367.981 255.914,367.935 255.868 C 367.889 255.822,367.746 256.204,367.617 256.717 M291.739 257.310 C 291.005 258.807,291.072 258.985,291.823 257.530 C 292.155 256.886,292.393 256.327,292.352 256.286 C 292.311 256.245,292.035 256.706,291.739 257.310 M367.114 258.514 C 367.041 258.807,367.019 259.086,367.066 259.133 C 367.113 259.180,367.212 258.979,367.286 258.686 C 367.359 258.393,367.381 258.114,367.334 258.067 C 367.287 258.020,367.188 258.221,367.114 258.514 M366.714 259.914 C 366.641 260.207,366.619 260.486,366.666 260.533 C 366.713 260.580,366.812 260.379,366.886 260.086 C 366.959 259.793,366.981 259.514,366.934 259.467 C 366.887 259.420,366.788 259.621,366.714 259.914 M289.311 262.124 C 283.522 273.061,274.234 283.233,263.209 290.711 C 261.839 291.640,260.789 292.400,260.876 292.400 C 260.962 292.400,262.235 291.582,263.705 290.582 C 274.576 283.186,284.494 272.134,289.906 261.387 C 290.997 259.222,290.562 259.759,289.311 262.124 M366.120 261.920 C 365.927 262.533,365.804 263.071,365.848 263.115 C 365.892 263.159,366.087 262.693,366.280 262.080 C 366.473 261.467,366.596 260.929,366.552 260.885 C 366.508 260.841,366.313 261.307,366.120 261.920 M364.648 266.548 C 364.077 268.268,363.643 269.710,363.684 269.751 C 363.725 269.792,364.227 268.419,364.800 266.700 C 365.373 264.981,365.807 263.540,365.764 263.497 C 365.721 263.454,365.219 264.827,364.648 266.548 M363.123 270.923 C 362.946 271.443,362.836 271.902,362.878 271.945 C 362.920 271.987,363.100 271.597,363.277 271.077 C 363.454 270.557,363.564 270.098,363.522 270.055 C 363.480 270.013,363.300 270.403,363.123 270.923 M361.933 274.133 C 361.528 275.195,361.230 276.096,361.270 276.137 C 361.310 276.177,361.675 275.342,362.081 274.281 C 362.487 273.221,362.786 272.319,362.745 272.278 C 362.704 272.237,362.338 273.072,361.933 274.133 M360.227 278.427 C 359.990 278.997,359.829 279.496,359.869 279.536 C 359.910 279.576,360.137 279.143,360.373 278.573 C 360.610 278.003,360.771 277.504,360.731 277.464 C 360.690 277.424,360.463 277.857,360.227 278.427 M359.095 281.148 C 358.782 281.891,358.003 283.615,357.364 284.978 C 356.114 287.639,355.834 288.448,356.832 286.512 C 357.730 284.771,359.836 279.969,359.742 279.876 C 359.698 279.831,359.407 280.404,359.095 281.148 M354.751 290.466 C 346.151 307.281,336.319 320.875,323.435 333.759 C 320.024 337.171,319.531 337.594,319.235 337.362 C 318.935 337.127,318.928 337.136,319.174 337.449 C 319.523 337.894,320.471 337.097,324.503 332.969 C 336.953 320.222,346.037 307.632,354.396 291.539 C 355.413 289.581,356.212 287.945,356.171 287.905 C 356.131 287.864,355.492 289.017,354.751 290.466 "
      stroke="none" fill="#3c92c2" fill-rule="evenodd"></path>
  </g>
</svg>